<svg width="80" height="80" viewBox="0 0 80 80" fill="none" xmlns="http://www.w3.org/2000/svg">
<path d="M71.6162 19.1163L63.75 26.9825L62.1337 25.3663L60.3662 27.1338L63.75 30.5175L73.3837 20.8838L71.6162 19.1163Z" fill="#055F59"/>
<path d="M66.25 11.25C64.4725 11.25 62.7825 11.6287 61.25 12.3012V10C61.25 6.55375 58.4463 3.75 55 3.75H46.25C46.25 2.37125 45.1287 1.25 43.75 1.25H38.75C37.3713 1.25 36.25 2.37125 36.25 3.75H26.25C26.25 2.37125 25.1287 1.25 23.75 1.25H18.75C17.3713 1.25 16.25 2.37125 16.25 3.75H7.5C4.05375 3.75 1.25 6.55375 1.25 10V72.5C1.25 75.9463 4.05375 78.75 7.5 78.75H55C58.4463 78.75 61.25 75.9463 61.25 72.5V40.5175L65.5525 36.215C65.785 36.2275 66.015 36.25 66.25 36.25C73.1425 36.25 78.75 30.6425 78.75 23.75C78.75 16.8575 73.1425 11.25 66.25 11.25ZM55 6.25C57.0675 6.25 58.75 7.9325 58.75 10V13.7738C57.8025 14.4875 56.9613 15.3312 56.25 16.2812V11.25C56.25 9.87125 55.1287 8.75 53.75 8.75H46.25V6.25H55ZM26.7962 56.0638L33.9362 63.2038L24.9388 66.2025C24.3587 66.3988 23.7488 65.94 23.75 65.3487C23.75 65.2537 23.7662 65.1537 23.795 65.0637L26.7962 56.0638ZM28.0175 53.75L54.3113 27.4562C54.7938 29.0063 55.5713 30.4275 56.5775 31.655L31.25 56.9825L28.0175 53.75ZM38.75 3.75H43.75L43.7513 11.25H38.75V3.75ZM36.25 6.25V8.75H26.25V6.25H36.25ZM18.75 3.75H23.75L23.7512 11.25H18.75V3.75ZM23.75 13.75C25.1287 13.75 26.25 12.6287 26.25 11.25H36.25C36.25 12.6287 37.3713 13.75 38.75 13.75H43.75C45.1287 13.75 46.25 12.6287 46.25 11.25H53.75V22.5562H53.81C53.7725 22.95 53.75 23.3475 53.75 23.75C53.75 23.985 53.7725 24.215 53.785 24.4475L25.1575 53.075L21.4225 64.2775C21.3088 64.625 21.25 64.985 21.25 65.3487C21.25 67.2237 22.7763 68.75 24.6513 68.75C25.015 68.75 25.375 68.6913 25.7262 68.575L36.925 64.8425L53.75 48.0175V61.25H43.75V71.25H8.75V11.25H16.25C16.25 12.6287 17.3713 13.75 18.75 13.75H23.75ZM51.9825 63.75L46.25 69.4825V63.75H51.9825ZM58.75 72.5C58.75 74.5675 57.0675 76.25 55 76.25H7.5C5.4325 76.25 3.75 74.5675 3.75 72.5V10C3.75 7.9325 5.4325 6.25 7.5 6.25H16.25V8.75H8.75C7.37125 8.75 6.25 9.87125 6.25 11.25V71.25C6.25 72.6288 7.37125 73.75 8.75 73.75H45.5175L56.25 63.0175V45.5175L58.75 43.0175V72.5ZM36.25 61.9825L33.0175 58.75L58.3438 33.4225C59.5713 34.4275 60.9925 35.2062 62.5425 35.6888L36.25 61.9825ZM66.25 33.75C60.7363 33.75 56.25 29.2638 56.25 23.75C56.25 18.2362 60.7363 13.75 66.25 13.75C71.7637 13.75 76.25 18.2362 76.25 23.75C76.25 29.2638 71.7637 33.75 66.25 33.75Z" fill="#055F59"/>
<path d="M11.25 23.75H18.75V16.25H11.25V23.75ZM13.75 18.75H16.25V21.25H13.75V18.75Z" fill="#055F59"/>
<path d="M11.25 33.75H18.75V26.25H11.25V33.75ZM13.75 28.75H16.25V31.25H13.75V28.75Z" fill="#055F59"/>
<path d="M11.25 43.75H18.75V36.25H11.25V43.75ZM13.75 38.75H16.25V41.25H13.75V38.75Z" fill="#055F59"/>
<path d="M11.25 53.75H18.75V46.25H11.25V53.75ZM13.75 48.75H16.25V51.25H13.75V48.75Z" fill="#055F59"/>
<path d="M11.25 63.75H18.75V56.25H11.25V63.75ZM13.75 58.75H16.25V61.25H13.75V58.75Z" fill="#055F59"/>
<path d="M21.25 16.25H51.25V18.75H21.25V16.25Z" fill="#055F59"/>
<path d="M21.25 21.25H51.25V23.75H21.25V21.25Z" fill="#055F59"/>
<path d="M21.25 26.25H36.25V28.75H21.25V26.25Z" fill="#055F59"/>
<path d="M21.25 31.25H36.25V33.75H21.25V31.25Z" fill="#055F59"/>
<path d="M21.25 36.25H33.75V38.75H21.25V36.25Z" fill="#055F59"/>
<path d="M21.25 41.25H33.75V43.75H21.25V41.25Z" fill="#055F59"/>
</svg>
