<svg width="73" height="73" viewBox="0 0 73 73" fill="none" xmlns="http://www.w3.org/2000/svg">
<g clip-path="url(#clip0)">
<path d="M34.9877 35.7165C35.3888 36.1176 35.9327 36.343 36.5 36.343C37.0673 36.343 37.6113 36.1176 38.0123 35.7165L55.7826 17.9462C59.889 13.8398 59.8959 7.18822 55.7826 3.07484C51.6823 -1.02499 45.0112 -1.02485 40.9114 3.0747L36.5 7.48535L32.0889 3.07484C27.9888 -1.02499 21.3177 -1.02485 17.2176 3.07484C13.1106 7.18166 13.1046 13.8334 17.2176 17.9462L34.9877 35.7165ZM20.2421 6.09949C22.6744 3.66754 26.6319 3.66711 29.0647 6.09964C29.0647 6.09964 34.9877 12.022 34.9877 12.0222C35.3888 12.4233 35.9327 12.6487 36.5 12.6487C37.0673 12.6487 37.6113 12.4233 38.0123 12.0222L43.9356 6.09949C46.3678 3.66725 50.3257 3.66725 52.7581 6.09949C55.194 8.53544 55.1981 12.4814 52.7581 14.9215L36.5 31.1797L20.2421 14.9215C17.8062 12.4859 17.8017 8.53957 20.2421 6.09949Z" fill="#055F59"/>
<path d="M5.7643 20.8426L1.18269 23.1333C0.126189 23.6615 -0.301974 24.9462 0.226278 26.0027C0.756241 27.0626 2.04272 27.4856 3.09566 26.9591L7.67713 24.6684C8.73363 24.1402 9.16179 22.8555 8.63354 21.799C8.10529 20.7425 6.82052 20.3144 5.7643 20.8426Z" fill="#055F59"/>
<path d="M1.18263 4.05217L5.76409 6.34298C6.81917 6.87037 8.10437 6.44478 8.63348 5.38656C9.16173 4.33006 8.73357 3.04543 7.67707 2.51718L3.0956 0.226375C2.0391 -0.301877 0.754469 0.126428 0.226217 1.18279C-0.302035 2.23915 0.126128 3.52392 1.18263 4.05217Z" fill="#055F59"/>
<path d="M71.8173 23.1333L67.2359 20.8426C66.1795 20.3144 64.8948 20.7425 64.3665 21.799C63.8383 22.8555 64.2666 24.14 65.3229 24.6684L69.9044 26.9591C70.9595 27.4866 72.2448 27.0606 72.7738 26.0027C73.302 24.9462 72.8737 23.6615 71.8173 23.1333Z" fill="#055F59"/>
<path d="M67.2359 6.34286L71.8173 4.05205C72.8738 3.5238 73.302 2.23917 72.7737 1.18267C72.2455 0.126307 70.9609 -0.30214 69.9044 0.226254L65.3229 2.51706C64.2664 3.04531 63.8382 4.32994 64.3665 5.38644C64.8969 6.44722 66.1836 6.86897 67.2359 6.34286Z" fill="#055F59"/>
<path d="M51.8089 46.9491L48.9227 49.8356C47.8812 47.4703 45.5146 45.8152 42.7687 45.8152H27.7975C21.9667 45.8152 19.555 50.5621 19.0403 52.6874H15.7311V50.2445C15.7311 49.0634 14.7735 48.1058 13.5924 48.1058H2.13867C0.957555 48.1058 0 49.0634 0 50.2445V70.8613C0 72.0424 0.957555 72.9999 2.13867 72.9999H13.5924C14.7735 72.9999 15.7311 72.0424 15.7311 70.8613V68.4185H45.2225C47.8819 68.4185 50.3828 67.3825 52.2649 65.5012L67.792 49.9734C68.6273 49.1384 68.6266 47.7833 67.792 46.9489C63.3855 42.5426 56.2157 42.5426 51.8089 46.9491ZM11.4539 68.7226H4.27734V52.3832H11.4537V68.7226H11.4539ZM49.2406 62.4764C48.1667 63.5499 46.7397 64.141 45.2225 64.141H15.7312V56.9646H20.9253C22.1065 56.9646 23.064 56.0071 23.064 54.8259C23.064 52.2099 25.1794 50.0924 27.7976 50.0924H42.7689C44.1158 50.0924 45.2117 51.1882 45.2117 52.5351C45.2117 54.5332 43.3686 54.9679 42.8112 54.9776C42.8101 54.9776 42.8088 54.9776 42.8082 54.9776C42.7951 54.9778 42.782 54.9779 42.7689 54.9779H34.9478C33.7666 54.9779 32.8091 55.9355 32.8091 57.1166C32.8091 58.2977 33.7666 59.2553 34.9478 59.2553H42.7697C44.5628 59.2553 46.2496 58.5568 47.5204 57.2873L54.8337 49.9733C57.0454 47.7618 60.3771 47.3359 63.0201 48.6964L49.2406 62.4764Z" fill="#055F59"/>
</g>
<defs>
<clipPath id="clip0">
<rect width="73" height="73" fill="white"/>
</clipPath>
</defs>
</svg>
