<svg width="64" height="64" viewBox="0 0 64 64" fill="none" xmlns="http://www.w3.org/2000/svg">
<path d="M34.1333 17.0667C32.9557 17.0667 32 18.0224 32 19.2C32 20.3776 32.9557 21.3333 34.1333 21.3333C38.8395 21.3333 42.6667 25.1605 42.6667 29.8667C42.6667 31.0443 43.6224 32 44.8 32C45.9776 32 46.9333 31.0443 46.9333 29.8667C46.9333 22.8096 41.1904 17.0667 34.1333 17.0667Z" fill="#055F59"/>
<path d="M34.1333 8.53333C32.9557 8.53333 32 9.48906 32 10.6667C32 11.8443 32.9557 12.8 34.1333 12.8C43.5456 12.8 51.2 20.4544 51.2 29.8667C51.2 31.0443 52.1557 32 53.3333 32C54.5109 32 55.4667 31.0443 55.4667 29.8667C55.4667 18.1035 45.8965 8.53333 34.1333 8.53333Z" fill="#055F59"/>
<path d="M34.1333 0C32.9557 0 32 0.955733 32 2.13333C32 3.31093 32.9557 4.26667 34.1333 4.26667C48.2517 4.26667 59.7333 15.7483 59.7333 29.8667C59.7333 31.0443 60.6891 32 61.8667 32C63.0443 32 64 31.0443 64 29.8667C64 13.3973 50.5984 0 34.1333 0Z" fill="#055F59"/>
<path d="M57.6 46.9333C51.4048 46.9333 45.504 45.5851 40.064 42.9269C39.552 42.6709 38.9632 42.6411 38.4299 42.8288C37.8923 43.0165 37.4528 43.4091 37.2053 43.9168L33.8517 50.8587C25.1733 46.016 17.9883 38.8352 13.1499 30.1568L20.0875 26.7947C20.5995 26.5472 20.9877 26.1077 21.1755 25.5701C21.3589 25.0368 21.3248 24.448 21.0731 23.936C18.4149 18.496 17.0667 12.5952 17.0667 6.4C17.0667 5.2224 16.1109 4.26666 14.9333 4.26666H2.13333C0.955733 4.26666 0 5.2224 0 6.4C0 38.1611 25.8389 64 57.6 64C58.7776 64 59.7333 63.0443 59.7333 61.8667V49.0667C59.7333 47.8891 58.7776 46.9333 57.6 46.9333Z" fill="#055F59"/>
</svg>
