<svg width="115px" height="114px" viewBox="0 0 115 114" version="1.1" xmlns="http://www.w3.org/2000/svg" xmlns:xlink="http://www.w3.org/1999/xlink">
    <!-- Generator: Sketch 51.1 (57501) - http://www.bohemiancoding.com/sketch -->
    <desc>Created with Sketch.</desc>
    <defs></defs>
    <g id="Page-1" stroke="none" stroke-width="1" fill="none" fill-rule="evenodd">
        <g id="Invest---Merged-Version" transform="translate(-464.000000, -3177.000000)">
            <g id="Grow-Card" transform="translate(7.000000, 2851.000000)">
                <g id="Group-5" transform="translate(428.800000, 326.000000)">
                    <g id="Best-Content-Icon" transform="translate(28.444444, 0.000000)">
                        <circle id="Oval-2" fill="#01A99C" cx="56.8888889" cy="56.8888889" r="56.8888889"></circle>
                        <g id="podium" transform="translate(24.888889, 26.311111)" fill="#FFFFFF">
                            <polyline id="Fill-1" points="24.8268548 21.1428571 31.7142857 17.5310763 38.6017166 21.1428571 37.2863353 13.4930681 42.8571429 8.07477731 35.1573801 6.95964771 31.7142857 0 28.2711913 6.95964771 20.5714286 8.07477731 26.1422361 13.4930681 24.8268548 21.1428571"></polyline>
                            <polyline id="Fill-3" points="56.67875 53.0865684 56.67875 33.7156361 42.67375 33.7156361 42.67375 53.0865684 38.92375 53.0865684 38.92375 25.7142857 25.07625 25.7142857 25.07625 53.0865684 21.32625 53.0865684 21.32625 33.7156361 7.32125 33.7156361 7.32125 53.0865684 0 53.0865684 0 57.4085077 64 57.4085077 64 53.0865684 56.67875 53.0865684"></polyline>
                        </g>
                    </g>
                </g>
            </g>
        </g>
    </g>
</svg>
