
<svg width="114px" height="114px" viewBox="0 0 114 114" version="1.1" xmlns="http://www.w3.org/2000/svg" xmlns:xlink="http://www.w3.org/1999/xlink">
    <!-- Generator: Sketch 51.1 (57501) - http://www.bohemiancoding.com/sketch -->
    <desc>Created with Sketch.</desc>
    <defs></defs>
    <g id="Page-1" stroke="none" stroke-width="1" fill="none" fill-rule="evenodd">
        <g id="Invest---Merged-Version" transform="translate(-221.000000, -3177.000000)">
            <g id="Grow-Card" transform="translate(0.000000, 2851.000000)">
                <g id="Group-6" transform="translate(192.755556, 326.000000)">
                    <g id="RCT-Icon" transform="translate(28.444444, 0.000000)">
                        <circle id="Oval-2" fill="#01A99C" cx="56.8888889" cy="56.8888889" r="56.8888889"></circle>
                        <g id="noun_1373211_cc" transform="translate(27.022222, 27.022222)" fill="#FFFFFF" fill-rule="nonzero">
                            <path d="M58.9333333,58.8538012 C56.7859649,61.0011696 53.445614,61.0011696 51.3777778,58.9333333 L36.8233918,43.0269006 L43.0269006,36.8233918 L58.8538012,51.3777778 C60.9216374,53.445614 60.9216374,56.7859649 58.9333333,58.8538012 Z M40.0842105,33.9602339 L41.4362573,35.3122807 L35.2327485,41.5157895 L33.8807018,40.1637427 C30.3812865,42.4701754 26.1660819,43.7426901 21.871345,43.7426901 C16.0654971,43.7426901 10.5777778,41.4362573 6.44210526,37.380117 C2.30643275,33.2444444 0.0795321637,27.7567251 0.0795321637,21.9508772 C0.0795321637,16.1450292 2.38596491,10.6573099 6.44210526,6.52163743 C10.5777778,2.38596491 16.0654971,0.159064327 21.871345,0.159064327 C27.677193,0.159064327 33.1649123,2.46549708 37.3005848,6.52163743 C41.4362573,10.6573099 43.6631579,16.1450292 43.6631579,21.9508772 C43.6631579,26.245614 42.3906433,30.3812865 40.0842105,33.9602339 Z M34.4374269,9.22573099 C27.4385965,2.22690058 16.1450292,2.22690058 9.14619883,9.22573099 C2.14736842,16.2245614 2.14736842,27.5181287 9.14619883,34.5169591 C16.1450292,41.5157895 27.4385965,41.5157895 34.4374269,34.5169591 C41.4362573,27.5181287 41.4362573,16.1450292 34.4374269,9.22573099 Z M15.2701754,34.7555556 C15.5883041,34.2783626 15.4292398,33.6421053 14.9520468,33.3239766 C13.9976608,32.7672515 13.122807,32.051462 12.4070175,31.3356725 C9.8619883,28.7906433 8.50994152,25.4502924 8.50994152,21.871345 C8.50994152,18.2923977 9.94152047,14.9520468 12.4070175,12.4070175 C12.7251462,12.0888889 13.0432749,11.7707602 13.3614035,11.5321637 C13.8385965,11.1345029 13.8385965,10.4982456 13.5204678,10.1005848 C13.122807,9.62339181 12.4865497,9.62339181 12.0888889,9.94152047 C11.6912281,10.2596491 11.2935673,10.5777778 10.9754386,10.9754386 C7.95321637,13.8385965 6.3625731,17.7356725 6.3625731,21.871345 C6.3625731,26.0070175 7.95321637,29.9040936 10.8959064,32.8467836 C11.7707602,33.7216374 12.8046784,34.5169591 13.8385965,35.1532164 C13.9976608,35.2327485 14.1567251,35.3122807 14.3953216,35.3122807 C14.7134503,35.2327485 15.1111111,35.0736842 15.2701754,34.7555556 Z" id="Shape"></path>
                        </g>
                    </g>
                </g>
            </g>
        </g>
    </g>
</svg>
