
<svg width="115px" height="114px" viewBox="0 0 115 114" version="1.1" xmlns="http://www.w3.org/2000/svg" xmlns:xlink="http://www.w3.org/1999/xlink">
    <!-- Generator: Sketch 51.1 (57501) - http://www.bohemiancoding.com/sketch -->
    <desc>Created with Sketch.</desc>
    <defs></defs>
    <g id="Page-1" stroke="none" stroke-width="1" fill="none" fill-rule="evenodd">
        <g id="Invest---Merged-Version" transform="translate(-691.000000, -3177.000000)">
            <g id="Grow-Card" transform="translate(0.000000, 2851.000000)">
                <g id="Group-4" transform="translate(678.622222, 326.000000)">
                    <g id="Invest's-Scaling-Icon" transform="translate(13.000000, 0.000000)">
                        <g id="Scaling-Icon" transform="translate(0.244444, 0.000000)">
                            <circle id="Oval-2" fill="#01A99C" cx="56.8888889" cy="56.8888889" r="56.8888889"></circle>
                            <g id="noun_1396626_cc" transform="translate(25.600000, 27.733333)" fill="#FFFFFF" fill-rule="nonzero">
                                <g id="Group">
                                    <path d="M1.35111111,30.5777778 C2.00294714,31.29638 3.11054833,31.3596715 3.84,30.72 L32.9955556,5.47555556 L32.9955556,12.5155556 C32.9955556,13.4973951 33.7914938,14.2933333 34.7733333,14.2933333 C35.7551729,14.2933333 36.5511111,13.4973951 36.5511111,12.5155556 L36.5511111,1.56444444 L36.5511111,0.64 L36.4088889,0.497777778 L36.3377778,0.497777778 L36.1955556,0.355555556 L24.1066667,0.355555556 C23.1248271,0.355555556 22.3288889,1.15149378 22.3288889,2.13333333 C22.3288889,3.11517289 23.1248271,3.91111111 24.1066667,3.91111111 L30.2933333,3.91111111 L1.49333333,28.0888889 C0.774731095,28.7407249 0.711439598,29.8483261 1.35111111,30.5777778 Z" id="Shape"></path>
                                    <polygon id="Shape" points="57.9555556 9.45777778 48 9.45777778 48 52.8355556 43.0222222 52.8355556 43.0222222 17.9911111 33.0666667 17.9911111 33.0666667 52.8355556 28.0888889 52.8355556 28.0888889 30.7911111 18.1333333 30.7911111 18.1333333 52.8355556 13.1555556 52.8355556 13.1555556 39.3244444 3.2 39.3244444 3.2 52.8355556 0 52.8355556 0 55.68 61.1555556 55.68 61.1555556 52.8355556 57.9555556 52.8355556"></polygon>
                                </g>
                            </g>
                        </g>
                    </g>
                </g>
            </g>
        </g>
    </g>
</svg>
