
<svg width="434px" height="237px" viewBox="0 0 434 237" version="1.1" xmlns="http://www.w3.org/2000/svg" xmlns:xlink="http://www.w3.org/1999/xlink">
    <!-- Generator: Sketch 51.1 (57501) - http://www.bohemiancoding.com/sketch -->
    <desc>Created with Sketch.</desc>
    <defs>
        <polygon id="path-1" points="0 5.68434189e-14 161.84943 5.68434189e-14 255.211582 76.6059607 468 76.6059607 468 241 0 241"></polygon>
    </defs>
    <g id="Page-1" stroke="none" stroke-width="1" fill="none" fill-rule="evenodd">
        <g id="Invest---Merged-Version" transform="translate(-590.000000, -254.000000)">
            <g id="Hero-Card" transform="translate(-10.000000, 0.000000)">
                <g id="Handout-Icon" transform="translate(571.000000, 250.000000)">
                    <mask id="mask-2" fill="white">
                        <use xlink:href="#path-1"></use>
                    </mask>
                    <use id="Mask" fill-opacity="0" fill="#D8D8D8" xlink:href="#path-1"></use>
                    <g id="bullet3icon.6dde8844e4d4e937a60e38b5bb15fc2a" mask="url(#mask-2)">
                        <g transform="translate(-75.000000, -162.000000)">
                            <path d="M446.535218,5.09522842 C393.726393,5.09522842 351.016952,47.8747966 351.016952,100.498527 C351.016952,153.122257 393.848072,195.780292 446.535218,195.780292 C499.344043,195.780292 542.053484,153.000724 542.053484,100.376994 C542.053484,47.7532637 499.100684,5.09522842 446.535218,5.09522842 Z" id="Shape" fill="#FFFFFF" fill-rule="nonzero"></path>
                            <path d="M202.432982,171.333489 C150.292387,171.333489 107.731111,213.695427 107.731111,265.861127 C107.731111,318.026828 150.17113,360.388766 202.432982,360.388766 C254.694834,360.388766 297.134853,318.026828 297.134853,265.982162 C297.013595,213.816461 254.573576,171.333489 202.432982,171.333489 Z" id="Shape" fill="#FFFFFF" fill-rule="nonzero"></path>
                            <path d="M444.902427,0.205867815 C390.250898,0.205867815 346.118579,44.7700094 346.118579,99.6837468 C346.118579,154.597484 390.492719,199.039866 444.902427,199.039866 C499.553956,199.039866 543.686275,154.475724 543.686275,99.5619868 C543.686275,44.6482495 499.312135,0.205867815 444.902427,0.205867815 Z M522.647855,60.477043 L522.647855,60.7205629 C522.647855,60.9640828 522.647855,61.0858427 522.406034,61.0858427 C522.406034,61.3293626 522.406034,61.4511225 522.406034,61.5728825 C522.406034,61.8164024 522.406034,62.0599223 522.164213,62.1816822 C521.801481,63.8863215 521.317839,65.8344807 520.471466,68.1479198 C519.141451,71.6789583 517.932346,74.966477 516.723242,77.6451959 C516.36051,78.9845553 515.635048,80.0803949 515.272316,81.1762344 C514.909585,82.5155939 513.942301,83.7331934 513.57957,84.9507929 C512.733197,86.6554322 512.128644,88.7253513 511.645002,91.2823102 C511.282271,93.5957493 510.798629,95.7874284 510.314987,98.1008674 C510.314987,98.4661473 510.073166,98.7096672 510.073166,99.196707 C509.710435,101.144866 509.468614,103.336545 508.743151,105.284704 C508.259509,107.354624 507.654957,109.059263 506.808584,110.885662 C505.962211,112.590301 505.115837,114.173181 504.027643,115.75606 C502.576718,117.825979 500.763061,119.408859 498.949404,120.504698 C497.014836,121.600538 495.201179,122.209337 493.024791,122.452857 C492.66206,122.452857 492.66206,122.452857 492.420239,122.452857 C492.057507,122.452857 491.573866,122.452857 491.090224,122.452857 C492.78297,123.913977 494.596627,125.983896 496.168463,128.297335 C496.531195,128.662615 496.652105,128.906135 497.014836,129.636694 C498.103031,131.341334 498.465762,133.411253 498.465762,136.211732 C498.465762,138.159891 498.223941,139.86453 497.86121,142.056209 C497.498478,144.247888 496.531195,146.439567 495.805732,148.631247 C494.354806,152.284045 492.541149,156.058604 490.364761,159.467882 C487.946552,163.60772 485.528342,166.651719 482.747402,169.452198 C481.296476,170.791557 479.966461,172.009157 478.636446,172.983237 C477.306431,173.835556 476.339147,174.322596 475.492774,174.444356 C475.492774,174.444356 475.250953,174.444356 475.250953,174.687876 L475.130043,174.687876 L473.074565,174.687876 C473.074565,174.687876 473.074565,174.687876 472.832744,174.687876 C472.832744,174.687876 472.832744,174.687876 472.590923,174.687876 C472.349102,174.687876 472.349102,174.687876 472.228192,174.687876 C471.74455,174.444356 470.898176,174.322596 470.535445,174.200836 C468.479967,173.592036 466.424489,172.252677 464.489922,170.669797 C462.192623,168.721638 460.378966,166.529959 458.444399,163.60772 C456.02619,159.954922 453.970712,156.180363 451.915234,152.284045 C451.310681,150.944686 450.585219,149.727086 449.980666,148.144207 C448.650651,145.709008 447.925189,143.030289 447.199726,140.47333 L447.199726,140.71685 C447.199726,142.056209 447.199726,143.030289 447.199726,144.247888 C447.199726,144.613168 447.199726,144.856688 447.199726,145.343728 C447.199726,147.778927 446.957905,150.214126 446.957905,152.527565 C446.957905,153.988684 446.716084,155.693324 446.595173,157.032683 C446.595173,157.397963 446.353353,158.372043 446.232442,158.980842 C445.869711,159.589642 445.869711,160.076682 445.265158,160.320202 L445.506979,160.320202 C445.144248,160.320202 444.660606,159.954922 444.176964,159.467882 C443.935143,159.102602 443.935143,158.859082 443.814233,158.615562 C443.572412,158.250283 443.572412,157.519723 443.572412,156.910923 C443.572412,155.571564 443.330591,154.597484 443.330591,153.379885 C443.330591,153.014605 443.330591,152.771085 443.330591,152.527565 C443.330591,151.675245 443.330591,150.822926 443.08877,150.092366 C443.08877,149.727086 443.08877,149.240046 443.08877,148.753007 C443.08877,147.291887 442.846949,145.465488 442.846949,143.639089 C442.846949,142.786769 442.846949,141.934449 442.605128,140.83861 C442.605128,140.59509 442.605128,140.47333 442.605128,140.35157 C442.242397,141.20389 442.242397,142.056209 441.758755,142.908529 C440.670561,146.074288 439.340546,148.996526 437.526889,152.771085 C436.075963,155.815084 434.262306,158.859082 431.965007,162.390121 C430.514082,164.70356 428.942246,166.773479 427.249499,168.478118 C425.314932,170.548038 423.138544,172.009157 420.962155,172.983237 C419.269409,173.835556 417.697573,174.322596 415.883916,174.444356 C415.642095,174.444356 415.642095,174.444356 415.521185,174.444356 C414.916632,174.444356 414.070259,174.200836 413.586617,174.079076 C412.498423,173.713796 411.531139,172.983237 410.442945,172.374437 C408.508378,171.035077 406.694721,169.208678 404.518332,166.773479 C402.462855,164.21652 400.286466,161.294281 398.472809,158.128523 C396.417331,154.597484 394.845495,151.309965 393.39457,147.657167 C392.064555,144.491408 391.460002,141.690929 391.097271,138.890451 C390.85545,137.185811 390.73454,135.602932 390.85545,134.141813 C391.097271,131.828374 391.701823,129.758454 392.910928,128.175575 C394.603674,125.740376 396.538242,123.670457 398.351899,121.844058 C397.989167,121.844058 397.505526,122.087578 397.021884,122.087578 C396.538242,122.087578 395.691869,122.087578 395.329137,121.844058 C393.999122,121.600538 392.910928,121.357018 391.701823,120.748218 C389.767256,119.895898 388.074509,118.434779 386.623584,116.60838 C385.293569,115.14726 383.842643,112.955581 382.87536,110.520382 C382.028986,108.572223 381.424434,106.380544 380.578061,103.458305 C380.215329,101.510146 379.973508,99.3184669 379.489867,97.4920677 C379.489867,97.1267878 379.248046,97.1267878 379.248046,96.639748 C378.885314,94.9351087 378.885314,92.9869495 378.159852,91.0387903 C377.67621,88.4818314 376.829836,86.2901523 376.104374,84.2202332 C375.01618,81.7850342 374.048896,79.4715951 373.081612,77.401676 C372.235239,75.3317568 371.026134,72.6530379 369.93794,69.8525591 C368.849746,67.0520802 367.640641,63.5210417 367.156999,59.8682432 C367.156999,59.8682432 367.156999,59.6247233 367.156999,59.5029634 L366.915179,59.2594435 L366.552447,55.7284049 L366.794268,55.484885 C366.794268,55.484885 366.794268,55.2413651 366.794268,55.1196052 C366.794268,55.1196052 366.794268,55.1196052 366.794268,54.8760853 C366.794268,51.7103266 367.640641,48.9098477 369.212477,46.9616885 C369.696119,46.3528888 370.542492,45.6223291 371.147045,45.2570492 C373.565254,43.5524099 376.225284,42.4565704 379.006225,42.0912905 L379.248046,42.0912905 L379.489867,42.0912905 L383.117181,42.0912905 L383.359001,42.0912905 L383.600822,42.0912905 C385.051748,42.0912905 386.623584,42.5783303 387.832689,42.7000903 C390.250898,43.30889 392.548197,44.1612097 395.208227,45.744089 C398.351899,47.2052084 401.495571,49.2751276 404.760153,51.5885666 C410.563856,55.7284049 415.521185,59.7464833 420.115782,64.1298414 C424.468559,68.2696797 427.974962,72.1659981 430.997724,76.6711163 C434.020485,80.8109546 436.438695,85.1943128 438.373262,89.6994309 C438.977814,91.4040702 439.703277,92.9869495 440.307829,94.8133488 C440.54965,93.4739893 440.54965,92.4999097 440.670561,91.2823102 C440.912382,90.1864707 441.033292,88.9688712 441.516934,87.6295118 C441.879665,87.020712 441.879665,86.1683924 442.605128,85.6813526 C442.242397,85.1943128 442.121486,84.707273 442.000576,83.7331934 C441.758755,82.8808737 441.758755,82.0285541 442.242397,81.1762344 C442.484218,80.5674347 442.726039,79.715115 443.330591,79.4715951 C443.330591,79.2280752 443.330591,79.2280752 443.08877,79.1063153 C442.726039,77.401676 441.758755,75.5752767 441.154203,73.8706374 C440.066008,71.4354384 438.856904,69.1219994 437.647799,67.2956001 C436.317784,65.3474409 435.108679,63.5210417 433.536843,61.8164024 C433.174112,62.0599223 432.932291,62.1816822 432.56956,62.1816822 C431.118634,62.1816822 430.151351,60.7205629 430.03044,58.6506437 C430.03044,56.7024845 430.997724,55.1196052 432.448649,55.1196052 C433.899575,55.1196052 434.866859,56.5807246 434.987769,58.6506437 C434.987769,58.8941636 434.987769,59.1376835 434.987769,59.2594435 C437.043247,61.8164024 439.098725,64.8604011 440.791471,68.0261598 C442.484218,71.1919185 443.935143,74.6011971 445.023337,78.4975155 L445.023337,78.7410354 C445.265158,78.7410354 445.265158,78.7410354 445.386069,78.7410354 C445.62789,78.7410354 445.62789,78.7410354 445.7488,78.7410354 C445.869711,78.7410354 446.111532,78.7410354 446.232442,78.7410354 L446.232442,78.6192755 C447.320636,74.966477 448.650651,71.1919185 450.343398,67.9043999 C451.794323,64.8604011 453.60798,62.3034422 455.784369,59.7464833 C455.784369,59.3812034 455.542548,59.1376835 455.542548,58.6506437 C455.542548,56.7024845 456.872563,55.1196052 458.081667,55.1196052 C459.411682,55.1196052 460.499877,56.5807246 460.499877,58.6506437 C460.499877,60.5988029 459.169862,62.1816822 457.960757,62.1816822 C457.598026,62.1816822 457.598026,62.1816822 457.114384,61.9381623 L456.872563,62.1816822 C456.388921,62.790482 455.784369,63.5210417 455.421637,64.1298414 C453.970712,66.1997606 452.277965,68.6349596 451.068861,71.3136785 C449.738845,73.7488775 448.771562,76.5493563 447.925189,79.4715951 C447.925189,79.715115 447.925189,79.715115 447.683368,79.836875 C447.925189,80.0803949 447.925189,80.2021548 448.046099,80.3239148 C448.529741,81.6632742 448.650651,82.6373538 448.529741,83.8549533 C448.28792,84.3419931 448.167009,85.3160727 448.046099,85.8031125 C448.529741,86.6554322 449.134293,87.7512717 449.497025,88.9688712 C449.980666,90.6735105 450.343398,92.6216697 450.464308,94.8133488 C450.82704,93.9610291 450.82704,93.1087095 451.310681,92.3781498 C452.398876,89.334151 453.728891,86.4119123 455.421637,83.6114334 C456.751652,81.0544745 458.565309,78.3757556 460.499877,75.6970367 C462.797175,72.531278 465.215385,69.7307991 468.117236,66.8085603 C470.898176,64.0080815 474.041848,60.9640828 477.669162,58.1636039 C482.021939,54.6325654 485.528342,52.0756064 488.913835,49.6404074 C493.024791,47.0834485 496.410284,45.2570492 499.795777,43.7959298 C502.818539,42.4565704 505.599479,42.0912905 508.38042,41.8477706 C508.743151,41.8477706 508.984972,41.8477706 509.468614,41.8477706 C511.403181,41.8477706 513.095928,42.2130505 514.909585,42.7000903 C516.602331,43.1871301 518.174167,44.0394497 519.625093,45.2570492 C521.076018,46.3528888 522.043302,47.6922482 522.768765,49.3968875 C523.373317,51.1015268 523.736049,52.9279261 523.736049,54.8760853 L523.736049,55.1196052 L523.736049,55.3631251 L522.647855,60.477043 Z" id="Shape" fill="#83C5EB" fill-rule="nonzero"></path>
                            <path d="M97.9343656,82.1334452 C154.303284,81.890315 236.977697,81.2824896 293.346616,82.1334452 C302.5596,82.3765754 313.34849,87.239179 320.137005,93.4389986 C346.684947,117.630452 372.263101,142.915991 397.720032,168.079964 C408.145251,178.048302 408.266475,190.812636 399.174714,199.808453 C391.173964,207.831749 378.687946,207.345489 368.626397,197.863412 C357.110166,187.044118 346.200053,175.617 334.683822,164.797707 C332.380576,162.852665 327.652861,163.338926 324.258603,166.256488 C337.229515,179.628648 349.715534,193.730198 363.17134,206.372968 C380.142627,222.297995 401.356736,217.921652 412.994191,197.741846 C414.812543,194.581154 419.782705,191.177332 423.540633,191.177332 C448.391447,190.691071 473.24226,190.691071 498.093074,190.934201 C511.670103,191.177332 522.580217,201.753494 522.458993,214.031569 C522.216546,226.795903 513.852126,235.79172 499.062861,236.156415 C450.694693,236.642675 402.447748,236.764241 354.079579,235.79172 C345.472712,235.54859 335.774834,230.321291 328.380201,224.972427 C301.226142,205.522012 275.163094,184.491252 248.130258,164.797707 C242.069084,160.421364 233.58344,157.625367 226.067584,157.503801 C192.246233,156.531281 131.998164,156.895976 97.9343656,156.895976 C97.9343656,131.732002 97.9343656,107.175854 97.9343656,82.1334452 Z" id="Shape" fill="#E0C69B" fill-rule="nonzero"></path>
                            <path d="M203.249377,166.444128 C148.814981,166.444128 104.465529,210.590705 104.465529,265.046234 C104.465529,319.501763 148.693476,363.64834 203.249377,363.64834 C257.805279,363.64834 302.033225,319.501763 302.033225,265.167516 C301.91172,210.711986 257.683773,166.444128 203.249377,166.444128 Z M202.39884,191.306898 C203.249377,191.306898 204.099915,191.306898 204.828947,191.306898 C207.137548,192.76228 207.988086,194.702788 207.988086,197.370988 C207.745075,201.130724 207.988086,204.89046 207.988086,208.650196 C207.988086,212.046086 206.165506,214.107877 203.613893,214.107877 C201.062281,214.107877 199.361206,212.167368 199.361206,208.528914 C199.361206,204.647896 199.604217,201.009442 199.361206,197.128424 C199.361206,194.581507 200.211743,192.398434 202.39884,191.306898 Z M139.216059,229.631948 C141.889176,226.599903 143.10423,226.357339 147.113906,227.934002 C150.759067,229.389384 154.282722,231.087329 157.927882,232.421429 C160.844011,233.755529 161.816053,235.81732 160.965516,238.242956 C160.114979,240.668592 157.077345,241.638846 154.404227,240.668592 C150.030035,238.849365 145.898853,236.787574 141.646166,234.725783 C140.552618,234.240656 139.945091,233.027838 139.216059,232.300147 C139.216059,231.451175 139.216059,230.48092 139.216059,229.631948 Z M158.535409,270.382633 C154.039711,271.231606 149.301003,271.838015 144.92681,272.323142 C142.496703,272.686988 140.552618,271.231606 139.337564,269.169815 C139.337564,268.563406 139.337564,267.835715 139.337564,267.350588 C140.674123,264.924952 142.739714,264.197261 145.169821,263.712134 C148.32896,263.227007 151.488099,262.378034 154.647238,262.014189 C155.619281,261.771625 156.591324,261.771625 157.806377,261.771625 C160.236484,261.771625 162.18057,262.863162 162.545086,265.410079 C162.545086,268.442124 160.965516,270.14007 158.535409,270.382633 Z M165.096698,200.766879 C166.433257,200.281751 169.349385,200.403033 169.956912,201.252006 C173.359062,205.618151 176.27519,210.590705 179.191318,215.320695 C179.434329,215.68454 179.434329,215.927104 179.555834,217.139922 C178.948308,217.746331 178.09777,219.565558 177.125727,220.050685 C175.789169,220.414531 173.359062,220.293249 172.751535,219.444276 C169.349385,215.078131 166.433257,210.469423 163.517128,205.981996 C162.302075,203.55636 163.152612,201.252006 165.096698,200.766879 Z M214.792385,333.449171 C210.904214,333.449171 207.259054,333.449171 203.249377,333.449171 C198.753679,333.449171 193.893465,333.206607 189.276262,333.449171 C186.846155,333.449171 185.874112,332.357634 185.874112,330.05328 C185.631102,323.504063 185.631102,323.504063 192.435401,323.504063 C200.454754,323.504063 208.838623,323.504063 216.979482,323.504063 C220.746147,323.504063 220.867653,323.746626 221.232169,327.385081 C220.989158,333.449171 220.989158,333.449171 214.792385,333.449171 Z M214.792385,319.986891 C210.904214,319.986891 207.259054,319.986891 203.249377,319.986891 C198.753679,319.986891 193.893465,319.744327 189.276262,319.986891 C186.846155,319.986891 185.874112,319.016636 185.874112,316.591 C185.631102,310.041783 185.631102,310.041783 192.435401,310.041783 C200.454754,310.041783 208.838623,310.041783 216.979482,310.041783 C220.746147,310.041783 220.867653,310.284346 221.232169,313.9228 C220.989158,319.986891 220.989158,319.986891 214.792385,319.986891 Z M238.121412,252.554208 C237.756896,259.103426 235.812811,265.288798 232.896682,271.231606 C228.036468,280.691587 223.176254,290.030285 221.232169,300.46052 C220.624642,304.584102 219.774105,304.826665 215.399912,304.826665 C211.511741,304.826665 207.502064,304.826665 203.735399,304.826665 C199.239701,304.826665 194.744003,304.826665 190.248305,304.826665 C188.304219,304.826665 186.846155,303.977693 186.360134,301.915902 C185.752607,299.490266 184.90207,297.428475 184.537554,294.881557 C182.714973,286.513113 178.705297,278.993641 175.060136,271.716733 C171.171965,263.833416 168.498848,255.828817 169.592396,246.975245 C171.05046,234.968347 177.490243,226.721184 188.790241,222.597603 C198.632174,219.201713 208.838623,219.201713 218.923567,222.355039 C231.438618,227.08503 238.850444,238.728083 238.121412,252.554208 Z M242.981626,206.588405 C240.551519,210.469423 238.242917,214.107877 235.812811,217.988895 C234.111736,220.414531 231.438618,220.899658 229.251522,219.444276 C227.307436,217.988895 226.821415,215.68454 228.643995,212.895059 C230.952597,209.256605 233.018187,205.375587 235.812811,202.100978 C237.149369,200.645597 239.457971,200.16047 241.280551,200.16047 C242.61711,200.16047 243.224637,202.464824 244.43969,203.435078 C243.710658,204.769178 243.346142,205.860714 242.981626,206.588405 Z M267.404201,269.412379 C266.067642,271.838015 263.759041,272.808269 260.842912,272.444424 C256.590225,271.838015 252.337538,271.110324 248.206356,270.625197 C245.776249,270.261351 243.953669,267.956997 244.318185,265.773925 C244.682701,263.348289 246.626786,261.892907 249.178399,262.378034 C254.038613,262.984443 259.020332,263.833416 263.759041,264.80367 C265.217105,265.046234 266.189148,266.744179 267.16119,267.835715 C267.404201,268.320843 267.404201,268.927252 267.404201,269.412379 Z M267.404201,232.178865 C266.067642,233.512965 264.974094,234.604502 263.151514,235.574756 C259.992375,237.272701 256.590225,238.970646 253.188075,240.426028 C249.907431,241.88141 246.869797,241.032437 245.897754,238.485519 C244.925712,236.181165 246.26227,233.998092 249.542915,232.542711 C253.188075,230.844766 256.71173,229.510666 260.356891,228.055284 C264.123557,226.357339 265.217105,226.721184 267.525706,230.48092 C267.404201,230.966047 267.404201,231.451175 267.404201,232.178865 Z" id="Shape" fill="#D6B432" fill-rule="nonzero"></path>
                            <path d="M548.220977,248.372395 C491.852059,248.128882 409.056422,247.520101 352.808727,248.372395 C343.595743,248.615908 332.806853,253.486159 326.018338,259.69573 C299.591619,283.681718 274.134689,309.128781 248.677758,334.210576 C238.252538,344.194592 238.131315,356.979002 247.223076,365.988967 C255.223826,374.024882 267.709844,373.537856 277.771393,364.040866 C289.287624,353.204557 300.197737,341.759466 311.835191,330.923157 C314.138437,328.975056 318.866153,329.462081 322.26041,332.384232 C309.289498,345.777423 296.803479,359.901152 283.347673,372.563806 C266.376386,388.51388 245.162277,384.130653 233.524823,363.91911 C231.706471,360.63169 226.736308,357.34427 222.97838,357.34427 C198.127567,356.979002 173.276753,356.979002 148.42594,357.100758 C134.84891,357.34427 123.938797,367.937067 124.06002,380.234452 C124.302467,393.018862 132.666887,402.028827 147.456152,402.394096 C195.82432,402.881121 244.071266,403.002877 292.439434,402.028827 C301.046301,401.785315 310.74418,396.549794 318.138812,391.192518 C345.292871,371.711512 371.35592,350.647675 398.388756,330.923157 C404.44993,326.53993 412.935573,323.739536 420.451429,323.617779 C454.394004,322.765485 514.642073,323.252511 548.584648,323.130754 C548.220977,298.414228 548.220977,273.210677 548.220977,248.372395 Z" id="Shape" fill="#CCA889" fill-rule="nonzero"></path>
                            <rect id="Rectangle-path" fill="none" x="0" y="41.2936526" width="742.919849" height="405.81693"></rect>
                        </g>
                    </g>
                </g>
            </g>
        </g>
    </g>
</svg>
