
<svg width="447px" height="236px" viewBox="0 0 447 236" version="1.1" xmlns="http://www.w3.org/2000/svg" xmlns:xlink="http://www.w3.org/1999/xlink">
    <!-- Generator: Sketch 51.1 (57501) - http://www.bohemiancoding.com/sketch -->
    <desc>Created with Sketch.</desc>
    <defs>
        <polygon id="path-1" points="0 27.8136983 0 181.951335 145.62033 181.951335 257.900009 263 474 263 474 0 0 0"></polygon>
    </defs>
    <g id="Page-1" stroke="none" stroke-width="1" fill="none" fill-rule="evenodd">
        <g id="Invest---Merged-Version" transform="translate(0.000000, -438.000000)">
            <g id="Hero-Card" transform="translate(-10.000000, 0.000000)">
                <g id="bullet3icon.6dde8844e4d4e937a60e38b5bb15fc2a" transform="translate(0.000000, 417.000000)">
                    <mask id="mask-2" fill="white">
                        <use xlink:href="#path-1"></use>
                    </mask>
                    <g id="Mask"></g>
                    <g mask="url(#mask-2)">
                        <g transform="translate(-133.000000, 21.000000)">
                            <path d="M492.286449,5.07670812 C439.477624,5.07670812 396.768183,47.7007797 396.768183,100.133231 C396.768183,152.565683 439.599304,195.068664 492.286449,195.068664 C545.095274,195.068664 587.804716,152.444592 587.804716,100.01214 C587.804716,47.5796886 544.851916,5.07670812 492.286449,5.07670812 Z" id="Shape" fill="#FFFFFF" fill-rule="nonzero"></path>
                            <path d="M248.184213,170.710721 C196.043619,170.710721 153.482342,212.91868 153.482342,264.894767 C153.482342,316.870854 195.922361,359.078813 248.184213,359.078813 C300.446065,359.078813 342.886084,316.870854 342.886084,265.015361 C342.764827,213.039274 300.324808,170.710721 248.184213,170.710721 Z" id="Shape" fill="#FFFFFF" fill-rule="nonzero"></path>
                            <path d="M490.653658,0.20511952 C436.002129,0.20511952 391.86981,44.607278 391.86981,99.3214131 C391.86981,154.035548 436.24395,198.316389 490.653658,198.316389 C545.305188,198.316389 589.437507,153.914231 589.437507,99.2000957 C589.437507,44.4859606 545.063367,0.20511952 490.653658,0.20511952 Z M568.399086,60.2572191 L568.399086,60.4998538 C568.399086,60.7424885 568.399086,60.8638059 568.157265,60.8638059 C568.157265,61.1064407 568.157265,61.227758 568.157265,61.3490754 C568.157265,61.5917102 568.157265,61.8343449 567.915444,61.9556623 C567.552713,63.6541055 567.069071,65.5951835 566.222698,67.9002135 C564.892683,71.4184173 563.683578,74.6939864 562.474473,77.3629686 C562.111742,78.6974597 561.386279,79.7893161 561.023548,80.8811724 C560.660816,82.2156635 559.693533,83.4288373 559.330801,84.642011 C558.484428,86.3404542 557.879876,88.4028495 557.396234,90.9505144 C557.033503,93.2555445 556.549861,95.4392572 556.066219,97.7442872 C556.066219,98.1082394 555.824398,98.3508741 555.824398,98.8361436 C555.461667,100.777222 555.219846,102.960934 554.494383,104.902012 C554.010741,106.964408 553.406189,108.662851 552.559815,110.482611 C551.713442,112.181055 550.867069,113.75818 549.778875,115.335306 C548.327949,117.397702 546.514292,118.974827 544.700635,120.066684 C542.766068,121.15854 540.952411,121.765127 538.776023,122.007762 C538.413291,122.007762 538.413291,122.007762 538.17147,122.007762 C537.808739,122.007762 537.325097,122.007762 536.841455,122.007762 C538.534202,123.46357 540.347859,125.525966 541.919695,127.830996 C542.282426,128.194948 542.403337,128.437583 542.766068,129.165487 C543.854262,130.86393 544.216993,132.926325 544.216993,135.716625 C544.216993,137.657703 543.975173,139.356146 543.612441,141.539859 C543.24971,143.723572 542.282426,145.907284 541.556963,148.090997 C540.106038,151.730518 538.292381,155.491357 536.115992,158.888243 C533.697783,163.013034 531.279574,166.045968 528.498633,168.836268 C527.047708,170.170759 525.717693,171.383933 524.387678,172.354472 C523.057663,173.203693 522.090379,173.688963 521.244006,173.81028 C521.244006,173.81028 521.002185,173.81028 521.002185,174.052915 L520.881274,174.052915 L518.825796,174.052915 C518.825796,174.052915 518.825796,174.052915 518.583975,174.052915 C518.583975,174.052915 518.583975,174.052915 518.342154,174.052915 C518.100334,174.052915 518.100334,174.052915 517.979423,174.052915 C517.495781,173.81028 516.649408,173.688963 516.286677,173.567645 C514.231199,172.961058 512.175721,171.626567 510.241153,170.049441 C507.943855,168.108363 506.130198,165.924651 504.19563,163.013034 C501.777421,159.373513 499.721943,155.612674 497.666465,151.730518 C497.061913,150.396027 496.33645,149.182853 495.731898,147.605727 C494.401883,145.17938 493.67642,142.510398 492.950957,139.962733 L492.950957,140.205368 C492.950957,141.539859 492.950957,142.510398 492.950957,143.723572 C492.950957,144.087524 492.950957,144.330158 492.950957,144.815428 C492.950957,147.241775 492.709136,149.668123 492.709136,151.973153 C492.709136,153.428961 492.467315,155.127405 492.346405,156.461896 C492.346405,156.825848 492.104584,157.796387 491.983674,158.402974 C491.620942,159.009561 491.620942,159.49483 491.01639,159.737465 L491.258211,159.737465 C490.895479,159.737465 490.411838,159.373513 489.928196,158.888243 C489.686375,158.524291 489.686375,158.281656 489.565464,158.039022 C489.323643,157.675069 489.323643,156.947165 489.323643,156.340578 C489.323643,155.006087 489.081822,154.035548 489.081822,152.822374 C489.081822,152.458422 489.081822,152.215788 489.081822,151.973153 C489.081822,151.123931 489.081822,150.27471 488.840002,149.546805 C488.840002,149.182853 488.840002,148.697584 488.840002,148.212314 C488.840002,146.756506 488.598181,144.936745 488.598181,143.116985 C488.598181,142.267763 488.598181,141.418541 488.35636,140.326685 C488.35636,140.08405 488.35636,139.962733 488.35636,139.841416 C487.993628,140.690637 487.993628,141.539859 487.509986,142.38908 C486.421792,145.543332 485.091777,148.454949 483.27812,152.215788 C481.827195,155.248722 480.013538,158.281656 477.716239,161.79986 C476.265313,164.10489 474.693477,166.167286 473.000731,167.865729 C471.066164,169.928124 468.889775,171.383933 466.713387,172.354472 C465.02064,173.203693 463.448804,173.688963 461.635147,173.81028 C461.393327,173.81028 461.393327,173.81028 461.272416,173.81028 C460.667864,173.81028 459.821491,173.567645 459.337849,173.446328 C458.249654,173.082376 457.282371,172.354472 456.194177,171.747885 C454.259609,170.413394 452.445952,168.593633 450.269564,166.167286 C448.214086,163.619621 446.037698,160.708004 444.224041,157.553752 C442.168563,154.035548 440.596727,150.759979 439.145801,147.120458 C437.815786,143.966206 437.211234,141.175907 436.848503,138.385607 C436.606682,136.687164 436.485771,135.110038 436.606682,133.65423 C436.848503,131.3492 437.453055,129.286804 438.66216,127.709678 C440.354906,125.283331 442.289473,123.220936 444.10313,121.401175 C443.740399,121.401175 443.256757,121.64381 442.773115,121.64381 C442.289473,121.64381 441.4431,121.64381 441.080369,121.401175 C439.750354,121.15854 438.66216,120.915905 437.453055,120.309319 C435.518487,119.460097 433.825741,118.004289 432.374815,116.184528 C431.0448,114.728719 429.593875,112.545007 428.626591,110.118659 C427.780218,108.177581 427.175666,105.993869 426.329292,103.082252 C425.966561,101.141174 425.72474,98.957461 425.241098,97.1377004 C425.241098,96.7737483 424.999277,96.7737483 424.999277,96.2884788 C424.636546,94.5900356 424.636546,92.6489576 423.911083,90.7078796 C423.427441,88.1602148 422.581068,85.9765021 421.855605,83.9141067 C420.767411,81.4877593 419.800127,79.1827292 418.832844,77.1203339 C417.98647,75.0579385 416.777366,72.3889563 415.689172,69.5986568 C414.600977,66.8083572 413.391873,63.2901534 412.908231,59.6506322 C412.908231,59.6506322 412.908231,59.4079974 412.908231,59.2866801 L412.66641,59.0440453 L412.303679,55.5258415 L412.5455,55.2832068 C412.5455,55.2832068 412.5455,55.040572 412.5455,54.9192546 C412.5455,54.9192546 412.5455,54.9192546 412.5455,54.6766199 C412.5455,51.5223682 413.391873,48.7320686 414.963709,46.7909907 C415.447351,46.1844038 416.293724,45.4564996 416.898276,45.0925475 C419.316485,43.3941042 421.976516,42.3022479 424.757456,41.9382958 L424.999277,41.9382958 L425.241098,41.9382958 L428.868412,41.9382958 L429.110233,41.9382958 L429.352054,41.9382958 C430.802979,41.9382958 432.374815,42.4235653 433.58392,42.5448826 C436.002129,43.1514695 438.299428,44.0006911 440.959458,45.5778169 C444.10313,47.0336254 447.246802,49.0960208 450.511385,51.4010508 C456.315087,55.5258415 461.272416,59.5293148 465.867014,63.8967402 C470.21979,68.0215309 473.726194,71.9036868 476.748955,76.3924296 C479.771717,80.5172203 482.189926,84.8846457 484.124494,89.3733885 C484.729046,91.0718317 485.454509,92.6489576 486.059061,94.4687182 C486.300882,93.1342271 486.300882,92.1636881 486.421792,90.9505144 C486.663613,89.858658 486.784524,88.6454843 487.268166,87.3109932 C487.630897,86.7044063 487.630897,85.8551847 488.35636,85.3699152 C487.993628,84.8846457 487.872718,84.3993762 487.751807,83.4288373 C487.509986,82.5796156 487.509986,81.730394 487.993628,80.8811724 C488.235449,80.2745856 488.47727,79.425364 489.081822,79.1827292 C489.081822,78.9400945 489.081822,78.9400945 488.840002,78.8187771 C488.47727,77.1203339 487.509986,75.3005733 486.905434,73.6021301 C485.81724,71.1757826 484.608135,68.8707525 483.399031,67.0509919 C482.069016,65.109914 480.859911,63.2901534 479.288075,61.5917102 C478.925344,61.8343449 478.683523,61.9556623 478.320791,61.9556623 C476.869866,61.9556623 475.902582,60.4998538 475.781672,58.4374585 C475.781672,56.4963805 476.748955,54.9192546 478.199881,54.9192546 C479.650806,54.9192546 480.61809,56.3750631 480.739001,58.4374585 C480.739001,58.6800932 480.739001,58.922728 480.739001,59.0440453 C482.794478,61.5917102 484.849956,64.6246445 486.542703,67.7788962 C488.235449,70.9331479 489.686375,74.3300343 490.774569,78.2121902 L490.774569,78.454825 C491.01639,78.454825 491.01639,78.454825 491.1373,78.454825 C491.379121,78.454825 491.379121,78.454825 491.500032,78.454825 C491.620942,78.454825 491.862763,78.454825 491.983674,78.454825 L491.983674,78.3335076 C493.071868,74.6939864 494.401883,70.9331479 496.094629,67.6575788 C497.545555,64.6246445 499.359212,62.0769796 501.5356,59.5293148 C501.5356,59.1653627 501.293779,58.922728 501.293779,58.4374585 C501.293779,56.4963805 502.623794,54.9192546 503.832899,54.9192546 C505.162914,54.9192546 506.251108,56.3750631 506.251108,58.4374585 C506.251108,60.3785364 504.921093,61.9556623 503.711988,61.9556623 C503.349257,61.9556623 503.349257,61.9556623 502.865615,61.7130275 L502.623794,61.9556623 C502.140152,62.5622491 501.5356,63.2901534 501.172869,63.8967402 C499.721943,65.9591356 498.029197,68.385483 496.820092,71.0544652 C495.490077,73.4808127 494.522793,76.2711123 493.67642,79.1827292 C493.67642,79.425364 493.67642,79.425364 493.434599,79.5466813 C493.67642,79.7893161 493.67642,79.9106334 493.797331,80.0319508 C494.280972,81.3664419 494.401883,82.3369809 494.280972,83.5501546 C494.039151,84.0354241 493.918241,85.0059631 493.797331,85.4912326 C494.280972,86.3404542 494.885525,87.4323106 495.248256,88.6454843 C495.731898,90.3439275 496.094629,92.2850055 496.21554,94.4687182 C496.578271,93.6194966 496.578271,92.770275 497.061913,92.0423707 C498.150107,89.0094364 499.480122,86.0978195 501.172869,83.3075199 C502.502884,80.7598551 504.316541,78.0908729 506.251108,75.4218907 C508.548407,72.267639 510.966616,69.4773394 513.868467,66.5657224 C516.649408,63.7754229 519.79308,60.7424885 523.420394,57.952189 C527.773171,54.4339852 531.279574,51.8863203 534.665067,49.4599729 C538.776023,46.912308 542.161516,45.0925475 545.547009,43.636739 C548.56977,42.3022479 551.350711,41.9382958 554.131651,41.695661 C554.494383,41.695661 554.736204,41.695661 555.219846,41.695661 C557.154413,41.695661 558.847159,42.0596131 560.660816,42.5448826 C562.353563,43.0301521 563.925399,43.8793737 565.376324,45.0925475 C566.82725,46.1844038 567.794534,47.5188949 568.519996,49.2173381 C569.124549,50.9157813 569.48728,52.7355419 569.48728,54.6766199 L569.48728,54.9192546 L569.48728,55.1618894 L568.399086,60.2572191 Z" id="Shape" fill="#83C5EB" fill-rule="nonzero"></path>
                            <path d="M143.685597,81.8349039 C200.054515,81.5926575 282.728929,80.9870414 339.097847,81.8349039 C348.310832,82.0771504 359.099721,86.9220792 365.888236,93.0993636 C392.436178,117.202885 418.014333,142.396515 443.471264,167.469022 C453.896483,177.401126 454.017706,190.119064 444.925945,199.082183 C436.925196,207.076315 424.439177,206.591823 414.377628,197.144211 C402.861398,186.364244 391.951285,174.978662 380.435054,164.198695 C378.131808,162.260723 373.404092,162.745216 370.009835,165.652174 C382.980747,178.975728 395.466765,193.026022 408.922572,205.622837 C425.893859,221.489979 447.107968,217.129543 458.745422,197.023088 C460.563774,193.873884 465.533937,190.482434 469.291865,190.482434 C494.142678,189.997941 518.993492,189.997941 543.844305,190.240188 C557.421335,190.482434 568.331448,201.020154 568.210225,213.2536 C567.967778,225.971538 559.603358,234.934657 544.814093,235.298026 C496.445924,235.782519 448.198979,235.903642 399.830811,234.934657 C391.223944,234.69241 381.526065,229.484112 374.131433,224.15469 C346.977373,204.774974 320.914325,183.820657 293.881489,164.198695 C287.820315,159.838259 279.334671,157.052425 271.818816,156.931302 C237.997465,155.962316 177.749395,156.325685 143.685597,156.325685 C143.685597,131.253178 143.685597,106.786288 143.685597,81.8349039 Z" id="Shape" fill="#E0C69B" fill-rule="nonzero"></path>
                            <path d="M249.000609,165.839132 C194.566213,165.839132 150.216761,209.825243 150.216761,264.082835 C150.216761,318.340428 194.444707,362.326539 249.000609,362.326539 C303.55651,362.326539 347.784457,318.340428 347.784457,264.203676 C347.662951,209.946084 303.435005,165.839132 249.000609,165.839132 Z M248.150071,190.61153 C249.000609,190.61153 249.851146,190.61153 250.580178,190.61153 C252.88878,192.061621 253.739317,193.995076 253.739317,196.653578 C253.496307,200.399648 253.739317,204.145717 253.739317,207.891787 C253.739317,211.275334 251.916737,213.329631 249.365125,213.329631 C246.813512,213.329631 245.112438,211.396175 245.112438,207.770946 C245.112438,203.904036 245.355448,200.278807 245.112438,196.411896 C245.112438,193.874236 245.962975,191.699098 248.150071,190.61153 Z M184.96729,228.797274 C187.640408,225.77625 188.855461,225.534568 192.865138,227.105501 C196.510298,228.555592 200.033953,230.247366 203.679114,231.576616 C206.595242,232.905867 207.567285,234.960163 206.716748,237.376982 C205.86621,239.793802 202.828576,240.760529 200.155459,239.793802 C195.781266,237.981187 191.650084,235.926891 187.397397,233.872594 C186.303849,233.389231 185.696322,232.180821 184.96729,231.455775 C184.96729,230.609888 184.96729,229.643161 184.96729,228.797274 Z M204.286641,269.399838 C199.790943,270.245725 195.052234,270.849929 190.678042,271.333293 C188.247935,271.695816 186.303849,270.245725 185.088796,268.191428 C185.088796,267.587223 185.088796,266.862178 185.088796,266.378814 C186.425354,263.961994 188.490945,263.236949 190.921052,262.753585 C194.080191,262.270221 197.23933,261.424334 200.398469,261.061811 C201.370512,260.820129 202.342555,260.820129 203.557609,260.820129 C205.987715,260.820129 207.931801,261.907698 208.296317,264.445358 C208.296317,267.466382 206.716748,269.158156 204.286641,269.399838 Z M210.847929,200.037125 C212.184488,199.553761 215.100617,199.674602 215.708143,200.520489 C219.110293,204.870763 222.026421,209.825243 224.94255,214.53804 C225.18556,214.900563 225.18556,215.142245 225.307066,216.350655 C224.699539,216.95486 223.849002,218.767474 222.876959,219.250838 C221.5404,219.613361 219.110293,219.49252 218.502766,218.646633 C215.100617,214.296358 212.184488,209.704402 209.26836,205.233286 C208.053306,202.816467 208.903844,200.520489 210.847929,200.037125 Z M260.543617,332.237139 C256.655446,332.237139 253.010285,332.237139 249.000609,332.237139 C244.504911,332.237139 239.644697,331.995457 235.027494,332.237139 C232.597387,332.237139 231.625344,331.14957 231.625344,328.853592 C231.382333,322.32818 231.382333,322.32818 238.186633,322.32818 C246.205986,322.32818 254.589855,322.32818 262.730713,322.32818 C266.497379,322.32818 266.618884,322.569862 266.9834,326.195091 C266.74039,332.237139 266.74039,332.237139 260.543617,332.237139 Z M260.543617,318.823792 C256.655446,318.823792 253.010285,318.823792 249.000609,318.823792 C244.504911,318.823792 239.644697,318.58211 235.027494,318.823792 C232.597387,318.823792 231.625344,317.857064 231.625344,315.440245 C231.382333,308.914833 231.382333,308.914833 238.186633,308.914833 C246.205986,308.914833 254.589855,308.914833 262.730713,308.914833 C266.497379,308.914833 266.618884,309.156515 266.9834,312.781744 C266.74039,318.823792 266.74039,318.823792 260.543617,318.823792 Z M283.872644,251.636216 C283.508128,258.161628 281.564042,264.324517 278.647914,270.245725 C273.7877,279.67132 268.927486,288.976074 266.9834,299.368397 C266.375874,303.47699 265.525336,303.718671 261.151144,303.718671 C257.262972,303.718671 253.253296,303.718671 249.48663,303.718671 C244.990932,303.718671 240.495234,303.718671 235.999536,303.718671 C234.055451,303.718671 232.597387,302.872785 232.111365,300.818488 C231.503839,298.401669 230.653301,296.347373 230.288785,293.809712 C228.466205,285.471686 224.456528,277.979546 220.811368,270.729088 C216.923197,262.874426 214.250079,254.898922 215.343627,246.077532 C216.801691,234.114276 223.241475,225.897091 234.541472,221.788498 C244.383405,218.404951 254.589855,218.404951 264.674799,221.546816 C277.189849,226.259614 284.601676,237.860346 283.872644,251.636216 Z M288.732858,205.837491 C286.302751,209.704402 283.994149,213.329631 281.564042,217.196542 C279.862967,219.613361 277.189849,220.096725 275.002753,218.646633 C273.058668,217.196542 272.572646,214.900563 274.395226,212.121221 C276.703828,208.495992 278.769419,204.629081 281.564042,201.366375 C282.900601,199.916284 285.209202,199.43292 287.031783,199.43292 C288.368342,199.43292 288.975868,201.728898 290.190922,202.695626 C289.46189,204.024876 289.097374,205.112445 288.732858,205.837491 Z M313.155433,268.43311 C311.818874,270.849929 309.510272,271.816657 306.594144,271.454134 C302.341457,270.849929 298.088769,270.124884 293.957588,269.64152 C291.527481,269.278997 289.7049,266.983019 290.069416,264.807881 C290.433932,262.391062 292.378018,260.94097 294.92963,261.424334 C299.789844,262.028539 304.771564,262.874426 309.510272,263.841153 C310.968336,264.082835 311.940379,265.774609 312.912422,266.862178 C313.155433,267.345541 313.155433,267.949746 313.155433,268.43311 Z M313.155433,231.334934 C311.818874,232.664185 310.725326,233.751754 308.902745,234.718481 C305.743606,236.410255 302.341457,238.102028 298.939307,239.55212 C295.658662,241.002211 292.621029,240.156325 291.648986,237.618664 C290.676943,235.322686 292.013502,233.147549 295.294146,231.697457 C298.939307,230.005684 302.462962,228.676433 306.108122,227.226341 C309.874788,225.534568 310.968336,225.897091 313.276938,229.643161 C313.155433,230.126525 313.155433,230.609888 313.155433,231.334934 Z" id="Shape" fill="#D6B432" fill-rule="nonzero"></path>
                            <rect id="Rectangle-path" fill="none" x="0" y="41.1435571" width="742.919849" height="404.341854"></rect>
                        </g>
                    </g>
                </g>
            </g>
        </g>
    </g>
</svg>
